<svg id="svg" version="1.1" xmlns="http://www.w3.org/2000/svg" xmlns:xlink="http://www.w3.org/1999/xlink" width="400" height="400" viewBox="0, 0, 400,400"><g id="svgg"><path id="path0" d="M102.600 246.551 C 96.080 249.626,94.150 256.773,96.205 270.235 C 96.538 272.416,96.985 275.370,97.199 276.800 C 97.708 280.214,100.124 289.273,101.437 292.693 C 102.009 294.182,102.859 296.390,103.325 297.600 C 103.792 298.810,105.237 301.870,106.537 304.400 C 107.837 306.930,109.103 309.404,109.350 309.897 C 109.598 310.390,109.935 310.795,110.100 310.797 C 110.265 310.799,110.400 310.984,110.400 311.209 C 110.400 312.165,117.608 322.302,120.633 325.600 C 121.541 326.590,123.165 328.391,124.242 329.603 C 126.192 331.797,130.353 335.629,133.923 338.520 C 134.955 339.356,136.070 340.259,136.400 340.526 C 136.730 340.793,137.630 341.454,138.400 341.995 C 139.170 342.536,140.111 343.262,140.490 343.610 C 140.870 343.957,141.860 344.612,142.690 345.065 C 143.521 345.518,145.460 346.666,147.000 347.614 C 150.308 349.652,157.215 353.082,160.600 354.367 C 161.920 354.868,163.360 355.422,163.800 355.599 C 164.240 355.775,165.230 356.136,166.000 356.400 C 166.770 356.664,167.760 357.022,168.200 357.195 C 168.640 357.367,169.765 357.709,170.700 357.954 C 180.785 360.598,182.939 360.976,191.400 361.592 C 194.260 361.800,197.280 362.084,198.112 362.222 C 205.610 363.472,213.637 355.293,211.972 348.100 C 210.271 340.758,206.464 338.216,196.200 337.574 C 182.591 336.722,167.202 332.194,159.608 326.809 C 159.054 326.415,157.880 325.693,157.000 325.204 C 147.164 319.734,133.225 304.318,128.244 293.400 C 127.842 292.520,127.068 290.810,126.522 289.600 C 125.977 288.390,125.366 287.087,125.165 286.705 C 124.964 286.323,124.800 285.736,124.800 285.400 C 124.800 285.064,124.641 284.477,124.447 284.095 C 122.527 280.320,120.000 268.415,120.000 263.143 C 120.000 259.096,119.234 254.035,118.363 252.328 C 115.379 246.477,108.276 243.874,102.600 246.551 " stroke="none" fill="#fbfbfc" fill-rule="evenodd"></path><path id="path1" d="M198.600 0.306 C 197.774 0.913,196.593 2.541,197.200 2.236 C 197.530 2.071,197.301 2.395,196.691 2.957 C 196.080 3.518,195.567 4.118,195.551 4.289 C 195.534 4.460,195.384 4.564,195.217 4.519 C 195.051 4.475,194.665 4.925,194.360 5.519 C 194.055 6.114,193.460 6.916,193.039 7.303 C 192.617 7.689,192.380 8.113,192.512 8.245 C 192.827 8.560,191.889 9.570,191.500 9.334 C 191.335 9.235,191.200 9.523,191.200 9.976 C 191.200 10.429,191.020 10.800,190.800 10.800 C 190.580 10.800,190.400 11.070,190.400 11.400 C 190.400 11.730,190.220 12.000,190.000 12.000 C 189.780 12.000,189.600 12.193,189.600 12.429 C 189.600 12.664,189.330 13.127,189.000 13.457 C 188.670 13.787,188.400 13.912,188.400 13.734 C 188.400 13.556,187.764 14.356,186.986 15.511 C 186.208 16.666,185.218 17.832,184.786 18.102 C 184.354 18.372,184.000 18.909,184.000 19.296 C 184.000 19.683,183.820 20.000,183.600 20.000 C 183.380 20.000,183.200 20.258,183.200 20.573 C 183.200 20.888,182.837 21.261,182.394 21.402 C 181.951 21.543,181.683 21.810,181.798 21.997 C 181.913 22.183,181.764 22.579,181.467 22.876 C 181.170 23.173,180.709 23.823,180.443 24.319 C 180.176 24.818,179.762 25.100,179.518 24.949 C 179.271 24.797,179.188 24.858,179.330 25.087 C 179.469 25.312,179.272 25.865,178.892 26.315 C 178.511 26.764,177.968 27.463,177.685 27.866 C 177.402 28.270,177.295 28.347,177.447 28.038 C 177.629 27.669,177.563 27.576,177.255 27.766 C 176.998 27.925,176.877 28.202,176.988 28.381 C 177.099 28.560,176.832 29.161,176.395 29.716 C 175.958 30.272,175.597 30.968,175.594 31.263 C 175.589 31.670,175.494 31.655,175.200 31.200 C 174.871 30.690,174.811 30.708,174.806 31.317 C 174.800 32.049,174.345 32.742,173.100 33.917 C 172.715 34.280,172.400 34.780,172.400 35.027 C 172.400 35.274,172.040 35.802,171.600 36.200 C 171.160 36.598,170.800 37.166,170.800 37.462 C 170.800 37.758,170.650 38.000,170.468 38.000 C 170.285 38.000,169.898 38.444,169.607 38.986 C 169.317 39.529,168.927 39.878,168.740 39.763 C 168.553 39.647,168.400 39.923,168.400 40.376 C 168.400 40.829,168.220 41.200,168.000 41.200 C 167.780 41.200,167.600 41.426,167.600 41.703 C 167.600 41.979,166.976 42.778,166.214 43.478 C 165.452 44.177,164.714 45.205,164.574 45.761 C 164.435 46.316,163.965 46.884,163.530 47.022 C 163.095 47.160,162.835 47.369,162.953 47.486 C 163.070 47.603,162.723 48.279,162.183 48.987 C 161.642 49.696,161.200 50.431,161.200 50.621 C 161.200 50.811,160.525 51.675,159.700 52.542 C 158.875 53.409,158.425 53.990,158.700 53.835 C 159.599 53.328,159.226 54.055,158.000 55.200 C 157.340 55.817,156.800 56.527,156.800 56.779 C 156.800 57.030,156.350 57.686,155.800 58.236 C 155.250 58.786,154.800 59.400,154.800 59.600 C 154.800 59.800,154.350 60.414,153.800 60.964 C 153.250 61.514,152.800 62.138,152.800 62.351 C 152.800 62.564,152.248 63.290,151.574 63.965 C 150.899 64.639,150.448 65.354,150.571 65.554 C 150.695 65.753,150.515 66.024,150.172 66.155 C 149.819 66.291,149.675 66.598,149.840 66.865 C 150.038 67.186,149.912 67.252,149.445 67.073 C 149.020 66.909,148.856 66.967,149.015 67.224 C 149.156 67.452,148.800 68.109,148.224 68.685 C 147.648 69.261,147.245 69.927,147.328 70.166 C 147.411 70.405,147.041 70.892,146.506 71.250 C 145.972 71.607,145.547 72.057,145.562 72.250 C 145.629 73.084,145.099 74.000,144.549 74.000 C 144.221 74.000,144.051 74.160,144.172 74.355 C 144.293 74.550,144.125 74.930,143.800 75.200 C 143.475 75.470,143.307 75.850,143.428 76.045 C 143.549 76.240,143.370 76.400,143.031 76.400 C 142.692 76.400,142.302 76.850,142.164 77.400 C 142.026 77.950,141.753 78.400,141.557 78.400 C 141.360 78.400,141.200 78.681,141.200 79.024 C 141.200 79.367,141.020 79.536,140.800 79.400 C 140.580 79.264,140.400 79.523,140.400 79.976 C 140.400 80.429,140.220 80.800,140.000 80.800 C 139.780 80.800,139.600 81.070,139.600 81.400 C 139.600 81.730,139.420 82.000,139.200 82.000 C 138.980 82.000,138.800 82.270,138.800 82.600 C 138.800 82.930,138.620 83.200,138.400 83.200 C 138.180 83.200,138.000 83.470,138.000 83.800 C 138.000 84.130,137.820 84.400,137.600 84.400 C 137.380 84.400,137.200 84.670,137.200 85.000 C 137.200 85.330,137.050 85.600,136.868 85.600 C 136.685 85.600,136.281 86.095,135.971 86.700 C 135.273 88.063,132.992 91.419,131.738 92.931 C 131.222 93.553,130.800 94.318,130.800 94.631 C 130.800 94.944,130.620 95.200,130.400 95.200 C 130.180 95.200,130.000 95.481,130.000 95.824 C 130.000 96.167,129.865 96.364,129.700 96.262 C 129.535 96.160,128.963 96.950,128.431 98.019 C 127.898 99.087,127.285 99.853,127.069 99.719 C 126.842 99.579,126.805 99.684,126.981 99.969 C 127.161 100.261,126.942 100.781,126.443 101.246 C 125.979 101.678,125.600 102.305,125.600 102.639 C 125.600 103.012,125.407 103.136,125.100 102.959 C 124.825 102.801,124.730 102.816,124.889 102.992 C 125.183 103.316,124.217 105.338,123.300 106.321 C 123.025 106.616,122.800 106.996,122.800 107.166 C 122.800 107.336,122.350 107.999,121.800 108.638 C 121.251 109.277,120.801 109.943,120.800 110.117 C 120.800 110.291,120.440 110.820,120.000 111.292 C 119.560 111.764,119.200 112.398,119.200 112.699 C 119.200 113.001,119.020 113.136,118.800 113.000 C 118.580 112.864,118.400 113.123,118.400 113.576 C 118.400 114.029,118.220 114.400,118.000 114.400 C 117.780 114.400,117.600 114.670,117.600 115.000 C 117.600 115.330,117.420 115.600,117.200 115.600 C 116.980 115.600,116.800 115.870,116.800 116.200 C 116.800 116.530,116.620 116.800,116.400 116.800 C 116.180 116.800,116.000 117.081,116.000 117.424 C 116.000 117.767,115.820 117.936,115.600 117.800 C 115.380 117.664,115.200 117.923,115.200 118.376 C 115.200 118.829,115.063 119.200,114.896 119.200 C 114.729 119.200,114.356 119.579,114.067 120.042 C 113.694 120.639,113.681 120.797,114.025 120.585 C 114.291 120.420,114.150 120.806,113.712 121.443 C 112.200 123.638,111.422 125.001,111.511 125.300 C 111.560 125.465,111.336 125.600,111.013 125.600 C 110.656 125.600,110.515 125.835,110.654 126.197 C 110.780 126.525,110.633 126.889,110.327 127.007 C 110.021 127.124,109.417 128.024,108.985 129.006 C 108.553 129.989,108.065 130.794,107.900 130.796 C 107.735 130.798,107.600 131.081,107.600 131.424 C 107.600 131.793,107.412 131.931,107.138 131.762 C 106.864 131.593,106.785 131.651,106.942 131.906 C 107.088 132.142,106.936 132.607,106.604 132.939 C 106.272 133.271,106.000 133.792,106.000 134.096 C 106.000 134.400,105.640 135.036,105.200 135.508 C 104.760 135.980,104.396 136.599,104.391 136.883 C 104.386 137.167,104.030 137.850,103.600 138.400 C 103.170 138.950,102.814 139.636,102.809 139.924 C 102.804 140.212,102.653 140.356,102.473 140.245 C 102.293 140.134,101.921 140.663,101.647 141.421 C 101.373 142.180,100.980 142.800,100.774 142.800 C 100.568 142.800,100.400 142.993,100.400 143.229 C 100.400 143.464,100.128 143.929,99.796 144.261 C 99.464 144.593,99.295 145.030,99.420 145.232 C 99.545 145.435,99.457 145.600,99.224 145.600 C 98.991 145.600,98.797 146.005,98.794 146.500 C 98.789 147.228,98.714 147.285,98.400 146.800 C 98.098 146.332,98.011 146.443,98.006 147.300 C 98.003 147.905,97.859 148.400,97.688 148.400 C 97.516 148.400,97.159 148.895,96.895 149.500 C 96.631 150.105,96.075 151.140,95.660 151.800 C 95.246 152.460,94.983 153.135,95.077 153.300 C 95.171 153.465,94.967 153.600,94.624 153.600 C 94.229 153.600,94.000 153.959,94.000 154.576 C 94.000 155.113,93.817 155.666,93.593 155.804 C 93.370 155.942,93.291 156.223,93.417 156.428 C 93.544 156.632,93.495 156.800,93.310 156.800 C 92.829 156.800,91.570 159.036,91.877 159.344 C 92.018 159.485,91.923 159.600,91.667 159.600 C 91.410 159.600,91.196 159.825,91.191 160.100 C 91.186 160.375,90.830 161.050,90.400 161.600 C 89.970 162.150,89.614 162.915,89.609 163.300 C 89.604 163.685,89.462 164.000,89.293 164.000 C 89.124 164.000,88.558 164.990,88.036 166.200 C 87.513 167.410,86.932 168.400,86.743 168.400 C 86.554 168.400,86.400 168.760,86.400 169.200 C 86.400 169.640,86.220 170.000,86.000 170.000 C 85.780 170.000,85.600 170.278,85.600 170.617 C 85.600 170.956,85.240 171.620,84.800 172.092 C 84.360 172.564,84.000 173.367,84.000 173.875 C 84.000 174.384,83.820 174.800,83.600 174.800 C 83.380 174.800,83.200 175.081,83.200 175.424 C 83.200 175.767,83.057 175.959,82.883 175.851 C 82.709 175.744,82.538 176.026,82.504 176.480 C 82.470 176.933,82.072 177.697,81.621 178.178 C 81.169 178.658,80.800 179.445,80.800 179.926 C 80.800 180.407,80.647 180.800,80.461 180.800 C 80.274 180.800,79.801 181.565,79.409 182.500 C 79.017 183.435,78.269 185.072,77.748 186.138 C 77.226 187.203,76.888 188.219,76.997 188.396 C 77.106 188.572,76.906 188.827,76.552 188.963 C 76.145 189.119,75.985 189.501,76.117 190.005 C 76.232 190.443,76.162 190.700,75.963 190.577 C 75.636 190.375,75.432 190.925,75.550 191.692 C 75.575 191.853,75.236 192.624,74.797 193.405 C 74.359 194.185,74.000 195.099,74.000 195.436 C 74.000 195.772,73.820 195.936,73.600 195.800 C 73.380 195.664,73.200 195.923,73.200 196.376 C 73.200 196.829,72.975 197.203,72.700 197.206 C 72.367 197.210,72.400 197.342,72.800 197.600 C 73.200 197.858,73.233 197.990,72.900 197.994 C 72.625 197.997,72.400 198.371,72.400 198.824 C 72.400 199.277,72.220 199.536,72.000 199.400 C 71.773 199.260,71.600 199.596,71.600 200.176 C 71.600 200.739,71.420 201.200,71.200 201.200 C 70.980 201.200,70.800 201.549,70.800 201.976 C 70.800 202.403,70.620 202.864,70.400 203.000 C 70.180 203.136,70.000 203.607,70.000 204.047 C 70.000 204.492,69.818 204.735,69.590 204.594 C 69.365 204.455,69.206 204.489,69.237 204.670 C 69.422 205.731,69.143 207.212,68.800 207.000 C 68.568 206.856,68.400 207.251,68.400 207.943 C 68.400 208.598,68.212 209.196,67.982 209.273 C 67.752 209.349,67.534 209.814,67.497 210.306 C 67.460 210.798,67.288 211.200,67.115 211.200 C 66.942 211.200,66.800 211.560,66.800 212.000 C 66.800 212.440,66.659 212.800,66.487 212.800 C 66.315 212.800,66.134 213.285,66.085 213.878 C 66.036 214.470,65.862 215.055,65.698 215.178 C 65.534 215.300,65.336 215.850,65.259 216.400 C 65.181 216.950,65.001 217.490,64.859 217.600 C 64.716 217.710,64.536 218.070,64.458 218.400 C 64.380 218.730,64.268 219.180,64.209 219.400 C 64.150 219.620,63.967 220.382,63.802 221.094 C 63.637 221.805,63.372 222.306,63.212 222.207 C 63.052 222.108,62.905 222.589,62.886 223.275 C 62.866 223.961,62.704 224.629,62.525 224.761 C 62.346 224.892,62.136 225.450,62.059 226.000 C 61.981 226.550,61.797 227.090,61.650 227.200 C 61.503 227.310,61.324 228.030,61.252 228.800 C 61.180 229.570,61.010 230.380,60.875 230.600 C 60.740 230.819,60.609 231.269,60.583 231.600 C 60.448 233.352,60.374 233.631,60.091 233.456 C 59.921 233.351,59.802 233.970,59.827 234.833 C 59.852 235.695,59.710 236.400,59.513 236.400 C 59.315 236.400,59.264 236.580,59.400 236.800 C 59.536 237.020,59.487 237.200,59.290 237.200 C 59.094 237.200,58.969 237.605,59.012 238.100 C 59.055 238.595,58.952 239.180,58.782 239.400 C 58.490 239.779,58.271 241.681,57.761 248.300 C 57.637 249.895,57.381 251.200,57.191 251.200 C 57.001 251.200,56.846 253.900,56.846 257.200 C 56.846 260.691,57.003 263.200,57.223 263.200 C 57.441 263.200,57.600 265.547,57.600 268.767 C 57.600 271.828,57.760 274.393,57.956 274.467 C 58.316 274.601,58.728 277.900,58.906 282.068 C 58.959 283.315,59.137 284.470,59.301 284.635 C 59.466 284.799,59.600 285.520,59.600 286.238 C 59.600 286.956,59.857 287.800,60.171 288.114 C 60.485 288.428,60.684 289.206,60.613 289.843 C 60.541 290.479,60.597 291.180,60.736 291.400 C 61.177 292.096,62.272 296.630,62.169 297.331 C 62.115 297.701,62.234 297.902,62.435 297.778 C 62.636 297.654,62.800 298.046,62.800 298.648 C 62.800 299.838,63.616 302.400,63.995 302.400 C 64.124 302.400,64.274 302.985,64.328 303.700 C 64.381 304.415,64.600 305.060,64.813 305.133 C 65.026 305.207,65.200 305.601,65.200 306.010 C 65.200 306.418,65.380 306.864,65.600 307.000 C 65.820 307.136,66.000 307.787,66.000 308.447 C 66.000 309.145,66.167 309.544,66.400 309.400 C 66.620 309.264,66.800 309.513,66.800 309.953 C 66.800 310.393,66.980 310.864,67.200 311.000 C 67.420 311.136,67.600 311.687,67.600 312.224 C 67.600 312.761,67.780 313.200,68.000 313.200 C 68.220 313.200,68.400 313.650,68.400 314.200 C 68.400 314.750,68.580 315.200,68.800 315.200 C 69.020 315.200,69.200 315.560,69.200 316.000 C 69.200 316.440,69.380 316.800,69.600 316.800 C 69.820 316.800,70.000 317.145,70.000 317.567 C 70.000 317.988,70.135 318.393,70.300 318.467 C 70.819 318.697,72.400 322.038,72.400 322.904 C 72.400 323.360,72.512 323.622,72.648 323.485 C 72.785 323.348,73.359 324.173,73.924 325.318 C 74.490 326.463,75.099 327.460,75.279 327.534 C 75.458 327.608,75.503 327.833,75.379 328.034 C 75.255 328.235,75.354 328.400,75.600 328.400 C 75.846 328.400,75.956 328.547,75.845 328.727 C 75.734 328.907,75.993 329.307,76.421 329.615 C 77.210 330.184,77.542 331.059,76.793 330.596 C 76.391 330.347,77.815 332.649,79.023 334.200 C 79.366 334.640,79.926 335.585,80.269 336.300 C 80.611 337.015,81.051 337.600,81.246 337.600 C 81.441 337.600,81.600 337.856,81.600 338.169 C 81.600 338.482,82.140 339.278,82.800 339.938 C 83.460 340.598,84.000 341.295,84.000 341.485 C 84.000 341.676,84.720 342.628,85.600 343.600 C 86.480 344.572,87.200 345.518,87.200 345.702 C 87.200 345.886,87.650 346.486,88.200 347.036 C 88.750 347.586,89.200 348.203,89.200 348.407 C 89.200 348.610,90.100 349.653,91.200 350.725 C 92.300 351.796,93.200 352.882,93.200 353.136 C 93.200 353.391,93.474 353.600,93.809 353.600 C 94.143 353.600,94.622 354.050,94.873 354.600 C 95.123 355.150,95.490 355.600,95.688 355.600 C 95.885 355.600,95.965 355.735,95.866 355.900 C 95.694 356.184,96.857 357.513,97.090 357.300 C 97.151 357.245,97.232 357.335,97.271 357.500 C 97.370 357.915,98.284 358.800,98.614 358.800 C 99.121 358.800,101.157 360.710,100.911 360.956 C 100.777 361.090,100.905 361.200,101.196 361.200 C 101.486 361.200,103.136 362.647,104.862 364.415 C 106.588 366.183,108.000 367.523,108.000 367.394 C 108.000 367.265,108.426 367.618,108.946 368.179 C 109.466 368.741,110.107 369.200,110.369 369.200 C 110.632 369.200,110.747 369.362,110.624 369.561 C 110.502 369.759,111.191 370.248,112.155 370.647 C 113.242 371.096,113.834 371.568,113.712 371.886 C 113.588 372.207,113.839 372.400,114.381 372.400 C 114.857 372.400,115.144 372.567,115.018 372.771 C 114.892 372.975,115.196 373.271,115.694 373.429 C 116.192 373.586,116.835 374.049,117.123 374.457 C 117.410 374.866,117.955 375.200,118.334 375.200 C 118.713 375.200,119.283 375.560,119.600 376.000 C 119.917 376.440,120.497 376.800,120.888 376.800 C 121.280 376.800,121.600 376.980,121.600 377.200 C 121.600 377.420,121.809 377.600,122.064 377.600 C 122.319 377.600,123.515 378.346,124.723 379.258 C 125.931 380.169,126.788 380.664,126.629 380.358 C 126.469 380.051,126.697 380.205,127.134 380.700 C 127.571 381.195,128.225 381.600,128.588 381.600 C 128.950 381.600,129.136 381.780,129.000 382.000 C 128.864 382.220,129.033 382.400,129.376 382.400 C 129.719 382.400,130.000 382.591,130.000 382.824 C 130.000 383.057,130.165 383.145,130.368 383.020 C 130.570 382.895,131.020 383.077,131.368 383.425 C 131.715 383.773,132.000 383.943,132.000 383.804 C 132.000 383.664,132.855 383.989,133.900 384.525 C 134.945 385.061,136.655 385.927,137.700 386.449 C 138.745 386.971,139.600 387.518,139.600 387.664 C 139.600 387.810,140.034 387.882,140.565 387.824 C 141.225 387.751,141.466 387.884,141.328 388.243 C 141.190 388.602,141.398 388.716,141.983 388.603 C 142.470 388.509,142.931 388.676,143.052 388.990 C 143.168 389.294,143.606 389.476,144.025 389.395 C 144.444 389.314,144.965 389.552,145.181 389.924 C 145.398 390.296,145.581 390.466,145.588 390.302 C 145.595 390.138,146.545 390.362,147.700 390.801 C 148.855 391.240,150.115 391.600,150.500 391.600 C 150.885 391.600,151.200 391.780,151.200 392.000 C 151.200 392.220,151.841 392.400,152.624 392.400 C 153.471 392.400,153.947 392.562,153.800 392.800 C 153.662 393.023,153.969 393.200,154.496 393.200 C 155.015 393.200,155.611 393.349,155.820 393.530 C 156.029 393.712,157.010 394.091,158.000 394.372 C 158.990 394.653,160.213 395.045,160.719 395.242 C 161.224 395.439,162.180 395.600,162.842 395.600 C 163.505 395.600,163.964 395.735,163.863 395.900 C 163.761 396.065,164.335 396.248,165.139 396.307 C 165.943 396.366,166.660 396.591,166.733 396.807 C 166.807 397.023,167.672 397.200,168.657 397.200 C 169.749 397.200,170.351 397.356,170.200 397.600 C 170.045 397.851,170.903 398.000,172.496 398.000 C 173.895 398.000,175.211 398.168,175.420 398.374 C 175.629 398.580,176.819 398.803,178.064 398.870 C 179.310 398.937,180.261 399.101,180.178 399.236 C 179.906 399.676,188.312 400.000,200.000 400.000 C 211.688 400.000,220.094 399.676,219.822 399.236 C 219.739 399.101,220.690 398.937,221.936 398.870 C 223.181 398.803,224.371 398.580,224.580 398.374 C 224.789 398.168,226.105 398.000,227.504 398.000 C 229.097 398.000,229.955 397.851,229.800 397.600 C 229.649 397.356,230.251 397.200,231.343 397.200 C 232.328 397.200,233.193 397.023,233.267 396.807 C 233.340 396.591,234.057 396.366,234.861 396.307 C 235.665 396.248,236.239 396.065,236.137 395.900 C 236.036 395.735,236.495 395.600,237.158 395.600 C 237.820 395.600,238.776 395.439,239.281 395.242 C 239.787 395.045,241.010 394.653,242.000 394.372 C 242.990 394.091,243.971 393.712,244.180 393.530 C 244.389 393.349,244.985 393.200,245.504 393.200 C 246.031 393.200,246.338 393.023,246.200 392.800 C 246.053 392.562,246.529 392.400,247.376 392.400 C 248.159 392.400,248.800 392.220,248.800 392.000 C 248.800 391.780,249.115 391.600,249.500 391.600 C 249.885 391.600,251.145 391.240,252.300 390.801 C 253.455 390.362,254.405 390.138,254.412 390.302 C 254.419 390.466,254.602 390.296,254.819 389.924 C 255.035 389.552,255.556 389.314,255.975 389.395 C 256.394 389.476,256.832 389.294,256.948 388.990 C 257.069 388.676,257.530 388.509,258.017 388.603 C 258.602 388.716,258.810 388.602,258.672 388.243 C 258.534 387.884,258.775 387.751,259.435 387.824 C 259.966 387.882,260.400 387.810,260.400 387.664 C 260.400 387.518,261.255 386.971,262.300 386.449 C 263.345 385.927,265.055 385.061,266.100 384.525 C 267.145 383.989,268.000 383.664,268.000 383.804 C 268.000 383.943,268.285 383.773,268.632 383.425 C 268.980 383.077,269.430 382.895,269.632 383.020 C 269.835 383.145,270.000 383.057,270.000 382.824 C 270.000 382.591,270.281 382.400,270.624 382.400 C 270.967 382.400,271.136 382.220,271.000 382.000 C 270.864 381.780,271.050 381.600,271.412 381.600 C 271.775 381.600,272.429 381.195,272.866 380.700 C 273.303 380.205,273.531 380.051,273.371 380.358 C 273.212 380.664,274.069 380.169,275.277 379.258 C 276.485 378.346,277.681 377.600,277.936 377.600 C 278.191 377.600,278.400 377.420,278.400 377.200 C 278.400 376.980,278.720 376.800,279.112 376.800 C 279.503 376.800,280.083 376.440,280.400 376.000 C 280.717 375.560,281.287 375.200,281.666 375.200 C 282.045 375.200,282.590 374.866,282.877 374.457 C 283.165 374.049,283.808 373.586,284.306 373.429 C 284.804 373.271,285.108 372.975,284.982 372.771 C 284.856 372.567,285.143 372.400,285.619 372.400 C 286.161 372.400,286.412 372.207,286.288 371.886 C 286.166 371.568,286.758 371.096,287.845 370.647 C 288.809 370.248,289.498 369.759,289.376 369.561 C 289.253 369.362,289.368 369.200,289.631 369.200 C 289.893 369.200,290.534 368.741,291.054 368.179 C 291.574 367.618,292.000 367.265,292.000 367.394 C 292.000 367.523,293.412 366.183,295.138 364.415 C 296.864 362.647,298.514 361.200,298.804 361.200 C 299.095 361.200,299.223 361.090,299.089 360.956 C 298.843 360.710,300.879 358.800,301.386 358.800 C 301.716 358.800,302.630 357.915,302.729 357.500 C 302.768 357.335,302.935 357.165,303.100 357.122 C 303.660 356.977,304.317 356.201,304.134 355.900 C 304.035 355.735,304.115 355.600,304.312 355.600 C 304.510 355.600,304.877 355.150,305.127 354.600 C 305.378 354.050,305.857 353.600,306.191 353.600 C 306.526 353.600,306.800 353.391,306.800 353.136 C 306.800 352.882,307.700 351.796,308.800 350.725 C 309.900 349.653,310.800 348.610,310.800 348.407 C 310.800 348.203,311.250 347.586,311.800 347.036 C 312.350 346.486,312.800 345.886,312.800 345.702 C 312.800 345.518,313.520 344.572,314.400 343.600 C 315.280 342.628,316.000 341.676,316.000 341.485 C 316.000 341.295,316.540 340.598,317.200 339.938 C 317.860 339.278,318.400 338.482,318.400 338.169 C 318.400 337.856,318.559 337.600,318.754 337.600 C 318.949 337.600,319.389 337.015,319.731 336.300 C 320.074 335.585,320.634 334.640,320.977 334.200 C 322.185 332.649,323.609 330.347,323.207 330.596 C 322.458 331.059,322.790 330.184,323.579 329.615 C 324.007 329.307,324.266 328.907,324.155 328.727 C 324.044 328.547,324.154 328.400,324.400 328.400 C 324.646 328.400,324.745 328.235,324.621 328.034 C 324.497 327.833,324.542 327.608,324.721 327.534 C 324.901 327.460,325.510 326.463,326.076 325.318 C 326.641 324.173,327.215 323.348,327.352 323.485 C 327.488 323.622,327.600 323.360,327.600 322.904 C 327.600 322.038,329.181 318.697,329.700 318.467 C 329.865 318.393,330.000 317.988,330.000 317.567 C 330.000 317.145,330.180 316.800,330.400 316.800 C 330.620 316.800,330.800 316.440,330.800 316.000 C 330.800 315.560,330.980 315.200,331.200 315.200 C 331.420 315.200,331.600 314.750,331.600 314.200 C 331.600 313.650,331.780 313.200,332.000 313.200 C 332.220 313.200,332.400 312.761,332.400 312.224 C 332.400 311.687,332.580 311.136,332.800 311.000 C 333.020 310.864,333.200 310.393,333.200 309.953 C 333.200 309.513,333.380 309.264,333.600 309.400 C 333.833 309.544,334.000 309.145,334.000 308.447 C 334.000 307.787,334.180 307.136,334.400 307.000 C 334.620 306.864,334.800 306.418,334.800 306.010 C 334.800 305.601,334.974 305.207,335.187 305.133 C 335.400 305.060,335.619 304.415,335.672 303.700 C 335.726 302.985,335.876 302.400,336.005 302.400 C 336.384 302.400,337.200 299.838,337.200 298.648 C 337.200 298.046,337.364 297.654,337.565 297.778 C 337.766 297.902,337.885 297.701,337.831 297.331 C 337.728 296.630,338.823 292.096,339.264 291.400 C 339.403 291.180,339.459 290.479,339.387 289.843 C 339.316 289.206,339.515 288.428,339.829 288.114 C 340.143 287.800,340.400 286.956,340.400 286.238 C 340.400 285.520,340.534 284.799,340.699 284.635 C 340.863 284.470,341.041 283.315,341.094 282.068 C 341.272 277.900,341.684 274.601,342.044 274.467 C 342.240 274.393,342.400 271.828,342.400 268.767 C 342.400 265.556,342.559 263.200,342.776 263.200 C 342.995 263.200,343.145 260.695,343.135 257.202 C 343.126 253.903,342.971 251.294,342.791 251.406 C 342.611 251.517,342.370 250.301,342.256 248.704 C 342.142 247.107,341.847 244.540,341.601 243.000 C 341.356 241.460,341.120 239.525,341.077 238.700 C 341.035 237.875,340.854 237.200,340.676 237.200 C 340.498 237.200,340.464 237.020,340.600 236.800 C 340.736 236.580,340.682 236.400,340.479 236.400 C 340.277 236.400,340.197 235.949,340.303 235.398 C 340.408 234.846,340.248 234.092,339.947 233.721 C 339.476 233.140,339.484 233.093,340.000 233.382 C 340.488 233.655,340.507 233.617,340.100 233.179 C 339.825 232.882,339.600 232.237,339.600 231.744 C 339.600 231.251,339.420 230.736,339.200 230.600 C 338.980 230.464,338.800 229.748,338.800 229.010 C 338.800 228.271,338.631 227.607,338.425 227.533 C 338.218 227.460,337.985 226.912,337.906 226.315 C 337.828 225.718,337.637 225.103,337.482 224.948 C 337.327 224.793,337.200 224.176,337.200 223.576 C 337.200 222.976,336.933 222.383,336.607 222.258 C 336.250 222.121,336.114 221.769,336.265 221.375 C 336.403 221.014,336.311 220.592,336.060 220.437 C 335.809 220.282,335.564 219.670,335.515 219.078 C 335.466 218.485,335.285 218.000,335.113 218.000 C 334.941 218.000,334.800 217.471,334.800 216.824 C 334.800 216.177,334.620 215.536,334.400 215.400 C 334.180 215.264,333.997 214.578,333.994 213.876 C 333.989 212.905,333.895 212.743,333.600 213.200 C 333.281 213.693,333.211 213.651,333.206 212.967 C 333.203 212.508,333.073 212.007,332.918 211.852 C 332.763 211.697,332.572 211.082,332.494 210.485 C 332.415 209.888,332.182 209.340,331.975 209.267 C 331.769 209.193,331.600 208.598,331.600 207.943 C 331.600 207.251,331.432 206.856,331.200 207.000 C 330.973 207.140,330.800 206.804,330.800 206.224 C 330.800 205.661,330.620 205.200,330.400 205.200 C 330.180 205.200,330.000 204.649,330.000 203.976 C 330.000 203.303,329.853 202.844,329.673 202.955 C 329.349 203.155,328.162 200.478,328.319 199.900 C 328.363 199.735,328.220 199.600,328.000 199.600 C 327.780 199.600,327.600 199.229,327.600 198.776 C 327.600 198.323,327.420 198.064,327.200 198.200 C 326.973 198.340,326.800 198.004,326.800 197.424 C 326.800 196.861,326.620 196.400,326.400 196.400 C 326.180 196.400,326.000 196.040,326.000 195.600 C 326.000 195.160,325.820 194.800,325.600 194.800 C 325.380 194.800,325.200 194.451,325.200 194.024 C 325.200 193.597,325.008 193.128,324.773 192.983 C 324.538 192.838,324.445 192.460,324.566 192.144 C 324.687 191.828,324.521 191.468,324.196 191.343 C 323.871 191.218,323.721 190.928,323.863 190.697 C 324.006 190.467,323.790 190.036,323.385 189.739 C 322.901 189.386,322.833 189.200,323.186 189.200 C 323.568 189.200,323.504 188.949,322.962 188.331 C 322.543 187.853,322.444 187.606,322.741 187.780 C 323.126 188.006,323.096 187.814,322.640 187.117 C 322.286 186.578,322.118 186.016,322.265 185.868 C 322.413 185.721,322.323 185.600,322.067 185.600 C 321.810 185.600,321.597 185.195,321.594 184.700 C 321.589 183.972,321.514 183.915,321.200 184.400 C 320.898 184.868,320.811 184.757,320.806 183.900 C 320.803 183.295,320.620 182.800,320.400 182.800 C 320.180 182.800,320.000 182.350,320.000 181.800 C 320.000 181.250,319.865 180.799,319.700 180.797 C 319.352 180.793,318.400 178.865,318.400 178.163 C 318.400 177.900,318.119 177.578,317.775 177.446 C 317.431 177.314,317.261 177.024,317.398 176.803 C 317.535 176.581,317.457 176.400,317.224 176.400 C 316.991 176.400,316.800 176.059,316.800 175.643 C 316.800 175.226,316.540 174.786,316.222 174.664 C 315.904 174.542,315.524 173.803,315.378 173.021 C 315.231 172.239,314.995 171.600,314.853 171.600 C 314.584 171.600,313.373 169.091,313.540 168.878 C 313.592 168.811,313.222 168.393,312.718 167.948 C 312.213 167.503,312.038 167.262,312.330 167.411 C 312.768 167.637,312.769 167.539,312.333 166.842 C 312.044 166.379,311.626 165.997,311.404 165.994 C 311.182 165.991,311.270 165.813,311.600 165.600 C 312.000 165.342,312.033 165.210,311.700 165.206 C 311.425 165.203,311.200 164.930,311.200 164.600 C 311.200 164.270,311.020 164.000,310.800 164.000 C 310.580 164.000,310.400 163.539,310.400 162.976 C 310.400 162.396,310.227 162.060,310.000 162.200 C 309.780 162.336,309.600 162.156,309.600 161.800 C 309.600 161.444,309.420 161.264,309.200 161.400 C 308.973 161.540,308.800 161.204,308.800 160.624 C 308.800 160.061,308.620 159.600,308.400 159.600 C 308.180 159.600,308.000 159.330,308.000 159.000 C 308.000 158.670,307.801 158.400,307.557 158.400 C 307.314 158.400,307.208 158.156,307.322 157.858 C 307.437 157.560,307.127 156.882,306.634 156.350 C 306.142 155.819,305.812 155.163,305.903 154.892 C 305.993 154.621,305.905 154.400,305.708 154.400 C 305.511 154.400,305.102 153.770,304.800 153.000 C 304.498 152.230,304.104 151.600,303.925 151.600 C 303.746 151.600,303.600 151.330,303.600 151.000 C 303.600 150.670,303.375 150.397,303.100 150.394 C 302.767 150.390,302.800 150.258,303.200 150.000 C 303.600 149.742,303.633 149.610,303.300 149.606 C 303.025 149.603,302.800 149.375,302.800 149.100 C 302.799 148.825,302.336 148.062,301.770 147.404 C 301.204 146.746,300.642 145.711,300.521 145.104 C 300.399 144.497,300.143 144.000,299.950 144.000 C 299.757 144.000,299.600 143.730,299.600 143.400 C 299.600 143.070,299.441 142.800,299.247 142.800 C 299.052 142.800,298.783 142.485,298.648 142.100 C 298.420 141.452,296.957 139.245,296.007 138.117 C 295.783 137.851,295.600 137.371,295.600 137.050 C 295.600 136.729,295.433 136.407,295.230 136.333 C 295.026 136.260,294.801 135.930,294.730 135.600 C 294.658 135.270,294.285 134.765,293.900 134.477 C 293.515 134.190,293.200 133.605,293.200 133.177 C 293.200 132.750,293.020 132.400,292.800 132.400 C 292.580 132.400,292.400 132.114,292.400 131.764 C 292.400 131.414,291.995 130.771,291.500 130.334 C 291.005 129.897,290.823 129.652,291.095 129.790 C 291.415 129.952,291.510 129.832,291.364 129.452 C 291.240 129.127,290.882 128.764,290.569 128.643 C 290.256 128.523,290.000 128.130,290.000 127.770 C 290.000 127.410,289.438 126.406,288.752 125.539 C 288.065 124.672,287.604 123.862,287.728 123.739 C 287.851 123.616,287.512 123.076,286.976 122.539 C 286.439 122.003,286.000 121.405,286.000 121.210 C 286.000 121.016,285.775 120.612,285.500 120.313 C 284.761 119.509,284.000 118.083,284.000 117.502 C 284.000 117.222,283.640 116.768,283.200 116.493 C 282.760 116.218,282.400 115.759,282.400 115.472 C 282.400 115.185,282.033 114.557,281.584 114.075 C 281.136 113.594,280.900 113.200,281.059 113.200 C 281.219 113.200,280.821 112.632,280.175 111.938 C 279.529 111.244,279.270 110.808,279.600 110.969 C 279.930 111.129,279.795 110.903,279.300 110.466 C 278.805 110.029,278.400 109.425,278.400 109.124 C 278.400 108.823,278.040 108.317,277.600 108.000 C 277.160 107.683,276.800 107.143,276.800 106.800 C 276.800 106.457,276.440 105.917,276.000 105.600 C 275.560 105.283,275.200 104.703,275.200 104.312 C 275.200 103.920,274.990 103.600,274.733 103.600 C 274.477 103.600,274.387 103.480,274.534 103.332 C 274.681 103.185,274.503 102.735,274.139 102.332 C 273.774 101.930,273.639 101.597,273.838 101.594 C 274.037 101.591,274.006 101.456,273.770 101.294 C 272.957 100.739,271.236 97.866,271.479 97.471 C 271.617 97.248,271.519 97.203,271.254 97.366 C 270.959 97.549,270.572 97.165,270.208 96.328 C 269.891 95.598,269.624 95.177,269.616 95.394 C 269.607 95.611,269.219 95.071,268.754 94.194 C 268.289 93.317,267.565 92.274,267.145 91.876 C 266.726 91.478,266.467 91.016,266.570 90.849 C 266.673 90.682,266.407 90.293,265.979 89.985 C 265.550 89.676,265.200 89.169,265.200 88.859 C 265.200 88.548,264.885 88.003,264.500 87.647 C 263.519 86.741,261.200 83.358,261.200 82.835 C 261.200 82.596,261.065 82.395,260.900 82.389 C 260.534 82.376,258.651 79.382,258.769 79.000 C 258.815 78.850,258.526 78.488,258.127 78.196 C 257.727 77.904,257.388 77.515,257.374 77.332 C 257.329 76.768,255.818 74.405,255.500 74.403 C 255.335 74.401,255.200 74.130,255.200 73.800 C 255.200 73.470,255.064 73.200,254.898 73.200 C 254.731 73.200,254.348 72.642,254.046 71.960 C 253.722 71.227,253.385 70.900,253.224 71.161 C 253.067 71.415,252.716 71.006,252.401 70.202 C 252.098 69.431,251.704 68.800,251.525 68.800 C 251.346 68.800,251.200 68.530,251.200 68.200 C 251.200 67.870,251.064 67.600,250.898 67.600 C 250.731 67.600,250.356 67.059,250.063 66.398 C 249.770 65.736,249.366 65.297,249.165 65.421 C 248.964 65.546,248.800 65.176,248.800 64.600 C 248.800 64.004,248.628 63.659,248.400 63.800 C 248.180 63.936,248.000 63.756,248.000 63.400 C 248.000 63.044,247.820 62.864,247.600 63.000 C 247.380 63.136,247.200 62.947,247.200 62.579 C 247.200 61.948,244.643 58.558,243.107 57.153 C 242.718 56.797,242.400 56.252,242.400 55.941 C 242.400 55.631,242.040 55.117,241.600 54.800 C 241.160 54.483,240.800 53.993,240.800 53.712 C 240.800 53.430,240.601 53.200,240.357 53.200 C 240.114 53.200,240.017 52.932,240.143 52.605 C 240.268 52.277,240.177 52.052,239.939 52.105 C 239.701 52.157,239.449 51.858,239.380 51.440 C 239.310 51.022,239.016 50.530,238.727 50.346 C 238.437 50.163,238.327 50.009,238.482 50.006 C 238.637 50.003,238.367 49.581,237.882 49.069 C 235.948 47.027,234.392 44.955,234.163 44.114 C 234.029 43.627,233.578 43.120,233.160 42.987 C 232.742 42.855,232.400 42.438,232.400 42.061 C 232.400 41.685,232.040 41.117,231.600 40.800 C 231.160 40.483,230.800 40.001,230.800 39.730 C 230.800 39.458,230.340 38.777,229.778 38.215 C 229.214 37.650,228.884 36.988,229.040 36.735 C 229.200 36.477,229.148 36.385,228.922 36.525 C 228.701 36.661,228.283 36.329,227.993 35.786 C 227.702 35.244,227.315 34.800,227.132 34.800 C 226.950 34.800,226.800 34.545,226.800 34.234 C 226.800 33.923,226.271 33.168,225.624 32.557 C 224.977 31.947,224.538 31.300,224.649 31.121 C 224.760 30.941,224.563 30.684,224.211 30.549 C 223.858 30.414,223.305 29.790,222.981 29.163 C 222.657 28.536,221.988 27.632,221.496 27.153 C 221.003 26.674,220.870 26.433,221.200 26.618 C 221.999 27.065,220.951 25.662,219.900 24.877 C 219.515 24.590,219.200 24.095,219.200 23.777 C 219.200 23.460,219.020 23.200,218.800 23.200 C 218.580 23.200,218.400 22.919,218.400 22.576 C 218.400 22.233,218.220 22.064,218.000 22.200 C 217.780 22.336,217.600 22.167,217.600 21.824 C 217.600 21.481,217.420 21.200,217.200 21.200 C 216.980 21.200,216.800 20.970,216.800 20.688 C 216.800 20.407,216.440 19.917,216.000 19.600 C 215.560 19.283,215.200 18.885,215.200 18.716 C 215.200 18.422,214.355 17.296,213.300 16.184 C 213.025 15.894,212.800 15.464,212.800 15.229 C 212.800 14.993,212.620 14.800,212.400 14.800 C 212.180 14.800,212.000 14.500,212.000 14.133 C 212.000 13.767,211.883 13.584,211.740 13.727 C 211.417 14.050,210.430 12.800,210.413 12.047 C 210.400 11.488,208.926 10.000,208.385 10.000 C 208.139 10.000,207.576 8.520,207.644 8.050 C 207.656 7.967,207.200 7.593,206.630 7.220 C 206.060 6.846,205.700 6.433,205.830 6.303 C 205.960 6.173,205.737 5.723,205.333 5.302 C 203.887 3.794,202.795 2.382,202.698 1.895 C 202.418 0.486,199.759 -0.545,198.600 0.306 M110.459 244.973 C 117.816 247.206,120.019 250.881,120.784 262.195 C 121.052 266.153,121.367 269.546,121.484 269.735 C 121.601 269.925,121.862 271.187,122.064 272.540 C 122.697 276.791,122.878 277.601,123.244 277.827 C 123.440 277.948,123.600 278.579,123.600 279.229 C 123.600 279.879,123.780 280.768,124.000 281.205 C 124.220 281.642,124.580 282.358,124.800 282.795 C 125.020 283.232,125.200 283.864,125.200 284.200 C 125.200 284.536,125.359 285.123,125.553 285.505 C 125.748 285.887,126.088 286.650,126.311 287.200 C 128.753 293.246,133.089 300.728,137.504 306.516 C 141.163 311.312,148.240 318.111,153.200 321.595 C 153.970 322.136,154.949 322.898,155.375 323.289 C 155.802 323.680,156.387 324.000,156.675 324.000 C 156.964 324.000,157.200 324.180,157.200 324.400 C 157.200 324.620,157.393 324.800,157.628 324.800 C 157.863 324.800,158.808 325.308,159.728 325.929 C 161.461 327.100,167.951 330.290,170.400 331.175 C 171.170 331.453,172.160 331.834,172.600 332.020 C 173.980 332.606,177.337 333.688,178.900 334.051 C 179.725 334.243,181.165 334.594,182.100 334.830 C 184.655 335.477,188.147 335.994,192.600 336.383 C 200.867 337.105,202.243 337.267,203.900 337.715 C 204.835 337.968,205.600 338.315,205.600 338.487 C 205.600 338.659,205.858 338.800,206.174 338.800 C 206.490 338.800,207.750 339.802,208.974 341.026 C 210.198 342.250,211.200 343.510,211.200 343.826 C 211.200 344.142,211.336 344.400,211.503 344.400 C 212.065 344.400,212.800 347.572,212.800 350.000 C 212.800 352.428,212.065 355.600,211.503 355.600 C 211.336 355.600,211.200 355.858,211.200 356.174 C 211.200 356.490,210.198 357.750,208.974 358.974 C 207.750 360.198,206.490 361.200,206.174 361.200 C 205.858 361.200,205.600 361.341,205.600 361.513 C 205.600 362.815,193.082 363.144,186.200 362.023 C 184.660 361.772,182.410 361.469,181.200 361.348 C 179.990 361.228,178.829 360.965,178.620 360.765 C 178.411 360.564,177.657 360.400,176.944 360.400 C 176.231 360.400,175.536 360.220,175.400 360.000 C 175.264 359.780,174.634 359.600,174.000 359.600 C 173.366 359.600,172.736 359.420,172.600 359.200 C 172.464 358.980,171.744 358.800,171.000 358.800 C 170.256 358.800,169.536 358.620,169.400 358.400 C 169.264 358.180,168.801 358.000,168.371 358.000 C 167.941 358.000,167.232 357.820,166.795 357.600 C 166.358 357.380,165.642 357.020,165.205 356.800 C 164.768 356.580,164.136 356.400,163.800 356.400 C 163.464 356.400,162.877 356.234,162.495 356.032 C 162.113 355.830,160.720 355.256,159.400 354.757 C 156.070 353.498,149.099 349.974,146.087 348.026 C 144.704 347.132,143.399 346.400,143.187 346.400 C 142.974 346.400,142.800 346.220,142.800 346.000 C 142.800 345.780,142.564 345.600,142.275 345.600 C 141.987 345.600,141.402 345.280,140.975 344.889 C 140.549 344.498,139.570 343.736,138.800 343.195 C 138.030 342.654,137.130 341.994,136.800 341.728 C 136.470 341.462,135.051 340.392,133.648 339.349 C 126.147 333.779,114.900 320.813,109.578 311.600 C 109.260 311.050,108.910 310.510,108.800 310.400 C 108.529 310.129,107.609 308.501,106.767 306.800 C 103.989 301.195,102.000 296.801,102.000 296.272 C 102.000 295.929,101.841 295.549,101.648 295.430 C 101.454 295.310,101.203 294.804,101.089 294.306 C 100.975 293.808,100.485 292.320,100.000 291.000 C 98.017 285.609,95.843 275.685,95.356 269.800 C 95.265 268.700,94.988 265.443,94.741 262.562 C 93.683 250.245,100.968 242.093,110.459 244.973 " stroke="none" fill="#84dcfc" fill-rule="evenodd"></path><path id="path2" d="M106.705 245.083 C 107.202 245.179,107.922 245.175,108.305 245.075 C 108.687 244.975,108.280 244.896,107.400 244.901 C 106.520 244.905,106.207 244.987,106.705 245.083 M116.400 249.000 C 117.146 249.770,117.847 250.400,117.957 250.400 C 118.067 250.400,117.546 249.770,116.800 249.000 C 116.054 248.230,115.353 247.600,115.243 247.600 C 115.133 247.600,115.654 248.230,116.400 249.000 M94.928 258.400 C 94.928 259.830,95.001 260.415,95.089 259.700 C 95.178 258.985,95.178 257.815,95.089 257.100 C 95.001 256.385,94.928 256.970,94.928 258.400 M120.109 258.000 C 120.109 258.990,120.187 259.395,120.282 258.900 C 120.378 258.405,120.378 257.595,120.282 257.100 C 120.187 256.605,120.109 257.010,120.109 258.000 M120.468 266.400 C 120.488 267.439,121.118 269.146,121.132 268.200 C 121.138 267.760,120.989 267.040,120.800 266.600 C 120.589 266.110,120.461 266.032,120.468 266.400 M95.228 268.233 C 95.244 268.875,95.416 269.760,95.610 270.200 C 95.847 270.734,95.886 270.402,95.727 269.200 C 95.446 267.080,95.188 266.580,95.228 268.233 M121.268 271.600 C 121.288 272.639,121.918 274.346,121.932 273.400 C 121.938 272.960,121.789 272.240,121.600 271.800 C 121.389 271.310,121.261 271.232,121.268 271.600 M138.400 308.525 C 138.400 308.594,138.985 309.179,139.700 309.825 L 141.000 311.000 139.825 309.700 C 138.730 308.488,138.400 308.216,138.400 308.525 M143.600 314.200 C 144.795 315.410,145.863 316.400,145.973 316.400 C 146.083 316.400,145.195 315.410,144.000 314.200 C 142.805 312.990,141.737 312.000,141.627 312.000 C 141.517 312.000,142.405 312.990,143.600 314.200 M147.800 318.000 C 148.659 318.880,149.452 319.600,149.562 319.600 C 149.672 319.600,149.059 318.880,148.200 318.000 C 147.341 317.120,146.548 316.400,146.438 316.400 C 146.328 316.400,146.941 317.120,147.800 318.000 M120.400 326.200 C 121.146 326.970,121.847 327.600,121.957 327.600 C 122.067 327.600,121.546 326.970,120.800 326.200 C 120.054 325.430,119.353 324.800,119.243 324.800 C 119.133 324.800,119.654 325.430,120.400 326.200 M122.400 328.510 C 122.400 328.571,123.795 329.966,125.500 331.610 L 128.600 334.600 125.610 331.500 C 122.833 328.621,122.400 328.217,122.400 328.510 M131.000 336.800 C 131.859 337.680,132.652 338.400,132.762 338.400 C 132.872 338.400,132.259 337.680,131.400 336.800 C 130.541 335.920,129.748 335.200,129.638 335.200 C 129.528 335.200,130.141 335.920,131.000 336.800 M192.505 337.087 C 193.114 337.179,194.014 337.177,194.505 337.082 C 194.997 336.987,194.500 336.911,193.400 336.914 C 192.300 336.917,191.897 336.995,192.505 337.087 M198.500 337.487 C 199.105 337.578,200.095 337.578,200.700 337.487 C 201.305 337.395,200.810 337.320,199.600 337.320 C 198.390 337.320,197.895 337.395,198.500 337.487 M207.139 340.001 C 208.051 340.662,209.338 341.949,209.999 342.861 C 210.659 343.774,211.200 344.299,211.200 344.028 C 211.200 343.757,210.134 342.470,208.832 341.168 C 207.530 339.866,206.243 338.800,205.972 338.800 C 205.701 338.800,206.226 339.341,207.139 340.001 M212.509 350.000 C 212.509 350.990,212.587 351.395,212.682 350.900 C 212.778 350.405,212.778 349.595,212.682 349.100 C 212.587 348.605,212.509 349.010,212.509 350.000 M209.912 357.233 C 209.313 358.083,208.071 359.323,207.152 359.989 C 206.232 360.655,205.655 361.200,205.868 361.200 C 206.806 361.200,211.636 356.276,211.144 355.821 C 211.065 355.748,210.510 356.384,209.912 357.233 M181.300 361.076 C 181.685 361.176,182.315 361.176,182.700 361.076 C 183.085 360.975,182.770 360.893,182.000 360.893 C 181.230 360.893,180.915 360.975,181.300 361.076 M190.300 362.282 C 190.795 362.378,191.605 362.378,192.100 362.282 C 192.595 362.187,192.190 362.109,191.200 362.109 C 190.210 362.109,189.805 362.187,190.300 362.282 M197.491 362.689 C 198.201 362.777,199.461 362.779,200.291 362.692 C 201.121 362.605,200.540 362.533,199.000 362.531 C 197.460 362.529,196.781 362.600,197.491 362.689 " stroke="none" fill="#b2eafc" fill-rule="evenodd"></path><path id="path3" d="M104.138 245.506 C 103.884 245.668,105.172 245.737,107.001 245.660 C 112.842 245.415,117.924 249.107,119.216 254.533 C 119.448 255.504,119.528 255.586,119.559 254.887 C 119.800 249.513,108.575 242.685,104.138 245.506 M100.567 247.323 C 98.729 248.590,95.981 251.985,96.018 252.944 C 96.027 253.195,96.372 252.763,96.784 251.985 C 97.697 250.258,100.282 247.696,102.075 246.740 C 102.804 246.351,103.195 246.026,102.944 246.017 C 102.693 246.008,101.623 246.596,100.567 247.323 M95.449 254.215 C 95.312 254.573,95.236 257.686,95.281 261.133 L 95.362 267.400 95.581 260.600 C 95.818 253.244,95.818 253.255,95.449 254.215 M119.709 257.600 C 119.709 258.590,119.787 258.995,119.882 258.500 C 119.978 258.005,119.978 257.195,119.882 256.700 C 119.787 256.205,119.709 256.610,119.709 257.600 M120.144 263.200 C 120.144 265.290,120.212 266.145,120.294 265.100 C 120.376 264.055,120.376 262.345,120.294 261.300 C 120.212 260.255,120.144 261.110,120.144 263.200 M120.688 269.400 C 120.811 270.720,120.976 271.875,121.056 271.967 C 121.335 272.289,121.116 268.988,120.793 268.000 C 120.589 267.379,120.549 267.909,120.688 269.400 M96.050 271.033 C 96.022 271.712,96.174 273.242,96.386 274.433 C 96.598 275.625,96.880 277.293,97.012 278.141 C 97.144 278.988,97.322 279.612,97.408 279.526 C 97.550 279.383,97.275 277.239,96.416 271.800 C 96.189 270.368,96.086 270.150,96.050 271.033 M121.606 274.833 C 121.609 275.365,121.789 276.070,122.006 276.400 C 122.282 276.822,122.323 276.585,122.142 275.600 C 121.825 273.875,121.598 273.549,121.606 274.833 M122.468 277.800 C 122.462 278.240,122.611 278.960,122.800 279.400 C 123.238 280.419,123.238 279.368,122.800 278.000 C 122.543 277.196,122.477 277.157,122.468 277.800 M97.668 280.600 C 97.662 281.040,97.811 281.760,98.000 282.200 C 98.438 283.219,98.438 282.168,98.000 280.800 C 97.743 279.996,97.677 279.957,97.668 280.600 M123.228 281.076 C 123.213 281.558,123.380 282.064,123.600 282.200 C 124.073 282.492,124.073 282.101,123.600 281.000 C 123.269 280.229,123.255 280.231,123.228 281.076 M98.406 283.833 C 98.409 284.255,98.595 284.870,98.818 285.200 C 99.115 285.638,99.152 285.476,98.956 284.600 C 98.627 283.129,98.398 282.810,98.406 283.833 M124.828 285.476 C 124.813 285.958,124.980 286.464,125.200 286.600 C 125.673 286.892,125.673 286.501,125.200 285.400 C 124.869 284.629,124.855 284.631,124.828 285.476 M99.234 287.000 C 99.222 287.440,99.387 288.070,99.600 288.400 C 100.114 289.195,100.114 288.196,99.600 287.000 L 99.256 286.200 99.234 287.000 M131.000 298.400 C 131.341 299.060,131.711 299.600,131.821 299.600 C 131.931 299.600,131.741 299.060,131.400 298.400 C 131.059 297.740,130.689 297.200,130.579 297.200 C 130.469 297.200,130.659 297.740,131.000 298.400 M133.003 301.600 C 133.956 303.382,139.188 309.867,142.202 313.000 L 145.665 316.600 141.920 312.400 C 139.861 310.090,137.115 306.760,135.817 305.000 C 133.338 301.637,132.449 300.563,133.003 301.600 M108.360 308.600 C 109.034 309.905,109.588 310.628,109.585 310.200 C 109.583 309.980,109.214 309.350,108.764 308.800 C 108.221 308.136,108.085 308.069,108.360 308.600 M110.646 312.500 C 111.899 314.640,115.396 319.660,115.926 320.080 C 116.286 320.366,115.983 319.790,115.253 318.800 C 114.523 317.810,113.206 315.875,112.327 314.500 C 111.448 313.125,110.644 312.000,110.541 312.000 C 110.437 312.000,110.485 312.225,110.646 312.500 M146.034 316.700 C 146.052 316.865,146.817 317.622,147.734 318.382 L 149.400 319.763 147.819 318.082 C 146.193 316.352,145.976 316.184,146.034 316.700 M149.744 319.909 C 150.060 320.421,152.400 322.153,152.400 321.875 C 152.400 321.776,151.739 321.191,150.932 320.575 C 150.124 319.959,149.589 319.659,149.744 319.909 M117.140 321.916 C 117.633 322.609,118.244 323.304,118.497 323.460 C 118.750 323.617,118.554 323.177,118.060 322.484 C 117.567 321.791,116.956 321.096,116.703 320.940 C 116.450 320.783,116.646 321.223,117.140 321.916 M152.998 322.396 C 153.315 322.909,156.818 325.319,156.983 325.139 C 157.053 325.062,156.131 324.326,154.933 323.502 C 153.735 322.678,152.864 322.180,152.998 322.396 M122.007 327.607 C 123.818 329.591,125.502 331.338,125.750 331.489 C 125.997 331.640,124.670 330.032,122.800 327.916 C 120.930 325.800,119.246 324.054,119.057 324.035 C 118.868 324.016,120.195 325.623,122.007 327.607 M159.400 326.675 C 160.422 327.461,169.989 332.152,170.161 331.951 C 170.232 331.868,167.660 330.508,164.445 328.929 C 161.230 327.351,158.960 326.336,159.400 326.675 M128.600 334.209 C 131.667 337.146,136.051 340.800,136.508 340.800 C 136.703 340.800,135.992 340.141,134.931 339.336 C 133.869 338.531,131.470 336.531,129.600 334.891 C 127.373 332.939,127.028 332.704,128.600 334.209 M178.600 334.800 C 179.040 334.989,179.670 335.144,180.000 335.144 C 180.378 335.144,180.304 335.017,179.800 334.800 C 179.360 334.611,178.730 334.456,178.400 334.456 C 178.022 334.456,178.096 334.583,178.600 334.800 M181.600 335.600 C 181.930 335.813,182.560 335.978,183.000 335.966 L 183.800 335.944 183.000 335.600 C 181.804 335.086,180.805 335.086,181.600 335.600 M185.600 336.400 C 186.150 336.576,187.050 336.717,187.600 336.713 C 188.498 336.706,188.478 336.674,187.400 336.400 C 185.708 335.969,184.256 335.969,185.600 336.400 M190.800 337.220 C 191.752 337.506,198.235 337.684,197.400 337.401 C 197.180 337.327,195.380 337.188,193.400 337.092 C 191.420 336.997,190.250 337.054,190.800 337.220 M201.600 338.000 C 203.142 338.494,203.964 338.494,203.200 338.000 C 202.870 337.787,202.150 337.627,201.600 337.646 L 200.600 337.680 201.600 338.000 M208.400 341.400 C 209.146 342.170,209.847 342.800,209.957 342.800 C 210.067 342.800,209.546 342.170,208.800 341.400 C 208.054 340.630,207.353 340.000,207.243 340.000 C 207.133 340.000,207.654 340.630,208.400 341.400 M137.200 341.349 C 137.200 341.435,137.830 341.986,138.600 342.573 C 139.370 343.160,139.998 343.497,139.995 343.320 C 139.992 343.144,139.362 342.593,138.595 342.096 C 137.828 341.599,137.200 341.263,137.200 341.349 M143.020 345.536 C 143.648 346.092,146.400 347.679,146.400 347.486 C 146.400 347.245,143.294 345.200,142.929 345.200 C 142.770 345.200,142.811 345.351,143.020 345.536 M211.646 346.800 C 211.665 347.130,211.824 347.850,212.000 348.400 L 212.320 349.400 212.354 348.400 C 212.373 347.850,212.213 347.130,212.000 346.800 C 211.655 346.267,211.616 346.267,211.646 346.800 M147.400 348.211 C 147.840 348.569,148.740 349.126,149.400 349.450 C 150.522 350.001,150.548 349.997,149.800 349.389 C 149.360 349.031,148.460 348.474,147.800 348.150 C 146.678 347.599,146.652 347.603,147.400 348.211 M152.800 351.200 C 154.010 351.839,155.180 352.362,155.400 352.362 C 155.620 352.362,154.810 351.839,153.600 351.200 C 152.390 350.561,151.220 350.038,151.000 350.038 C 150.780 350.038,151.590 350.561,152.800 351.200 M212.049 351.200 C 212.016 351.530,211.889 352.250,211.767 352.800 C 211.575 353.664,211.607 353.703,211.999 353.088 C 212.248 352.697,212.375 351.977,212.281 351.488 C 212.186 351.000,212.082 350.870,212.049 351.200 M157.800 353.511 C 158.606 354.254,164.176 356.209,163.814 355.622 C 163.703 355.442,163.204 355.209,162.706 355.103 C 162.208 354.997,160.810 354.513,159.600 354.027 C 158.390 353.540,157.580 353.309,157.800 353.511 M165.200 356.466 C 166.738 357.105,168.539 357.606,168.247 357.314 C 167.917 356.983,165.135 356.006,164.600 356.031 C 164.380 356.042,164.650 356.238,165.200 356.466 M208.378 358.700 L 207.000 360.200 208.500 358.822 C 209.896 357.538,210.184 357.200,209.878 357.200 C 209.812 357.200,209.137 357.875,208.378 358.700 M168.833 357.744 C 168.925 357.823,169.540 358.008,170.200 358.156 C 171.076 358.352,171.238 358.315,170.800 358.018 C 170.260 357.653,168.432 357.398,168.833 357.744 M172.033 358.544 C 172.125 358.623,172.740 358.808,173.400 358.956 C 174.276 359.152,174.438 359.115,174.000 358.818 C 173.460 358.453,171.632 358.198,172.033 358.544 M175.800 359.600 C 176.996 360.114,177.995 360.114,177.200 359.600 C 176.870 359.387,176.240 359.222,175.800 359.234 L 175.000 359.256 175.800 359.600 M179.200 360.400 C 179.750 360.576,180.560 360.726,181.000 360.732 L 181.800 360.744 181.000 360.400 C 180.560 360.211,179.750 360.062,179.200 360.068 L 178.200 360.080 179.200 360.400 M184.200 361.200 C 184.860 361.368,185.760 361.514,186.200 361.525 L 187.000 361.544 186.200 361.200 C 185.760 361.011,184.860 360.865,184.200 360.875 L 183.000 360.895 184.200 361.200 M190.800 362.014 C 192.230 362.175,194.480 362.301,195.800 362.294 L 198.200 362.282 195.800 361.985 C 194.480 361.821,192.230 361.695,190.800 361.704 L 188.200 361.722 190.800 362.014 M201.600 362.000 L 200.600 362.320 201.600 362.354 C 202.150 362.373,202.870 362.213,203.200 362.000 C 203.964 361.506,203.142 361.506,201.600 362.000 " stroke="none" fill="#caf0fc" fill-rule="evenodd"></path><path id="path4" d="M105.229 244.751 C 104.673 244.906,105.577 245.022,107.346 245.022 C 109.044 245.022,110.111 244.895,109.717 244.739 C 108.822 244.386,106.514 244.392,105.229 244.751 M113.200 246.163 C 113.200 246.243,113.650 246.603,114.200 246.963 C 114.750 247.324,115.200 247.463,115.200 247.273 C 115.200 247.084,114.750 246.723,114.200 246.473 C 113.650 246.222,113.200 246.083,113.200 246.163 M118.678 251.795 C 119.044 252.562,119.414 253.119,119.501 253.032 C 119.684 252.849,118.470 250.400,118.196 250.400 C 118.095 250.400,118.312 251.028,118.678 251.795 M119.668 254.000 C 119.688 255.039,120.318 256.746,120.332 255.800 C 120.338 255.360,120.189 254.640,120.000 254.200 C 119.789 253.710,119.661 253.632,119.668 254.000 M94.582 256.178 C 94.436 257.157,94.480 259.452,94.681 261.278 L 95.047 264.600 95.024 259.501 C 94.997 253.849,94.967 253.616,94.582 256.178 M120.460 262.600 C 120.458 264.360,120.602 266.160,120.780 266.600 C 120.962 267.050,121.023 265.827,120.919 263.800 C 120.679 259.120,120.464 258.559,120.460 262.600 M95.275 270.200 C 95.286 270.640,95.432 271.540,95.600 272.200 L 95.905 273.400 95.925 272.200 C 95.935 271.540,95.789 270.640,95.600 270.200 L 95.256 269.400 95.275 270.200 M121.256 270.200 C 121.256 270.640,121.411 271.360,121.600 271.800 L 121.944 272.600 121.944 271.800 C 121.944 271.360,121.789 270.640,121.600 270.200 L 121.256 269.400 121.256 270.200 M96.259 276.600 C 96.393 277.700,96.569 278.675,96.651 278.767 C 96.964 279.117,96.726 276.161,96.380 275.400 C 96.135 274.861,96.095 275.254,96.259 276.600 M97.044 280.600 C 97.373 282.071,97.602 282.390,97.594 281.367 C 97.591 280.945,97.405 280.330,97.182 280.000 C 96.885 279.562,96.848 279.724,97.044 280.600 M99.645 290.000 C 99.653 290.330,100.006 291.320,100.429 292.200 C 100.852 293.080,101.086 293.362,100.949 292.826 C 100.573 291.361,99.629 289.314,99.645 290.000 M130.360 296.200 C 131.034 297.505,131.588 298.228,131.585 297.800 C 131.583 297.580,131.214 296.950,130.764 296.400 C 130.221 295.736,130.085 295.669,130.360 296.200 M132.611 300.000 C 133.365 301.377,136.027 305.169,136.404 305.402 C 136.628 305.541,135.969 304.427,134.939 302.927 C 133.075 300.212,131.958 298.807,132.611 300.000 M143.400 313.600 C 144.928 315.140,146.267 316.400,146.376 316.400 C 146.484 316.400,145.589 315.378,144.386 314.128 C 143.184 312.879,141.988 311.619,141.729 311.328 C 141.469 311.038,141.114 310.800,140.939 310.800 C 140.764 310.800,141.872 312.060,143.400 313.600 M112.169 315.900 C 112.493 316.505,113.226 317.540,113.799 318.200 C 114.501 319.010,114.360 318.653,113.363 317.100 C 111.809 314.679,111.172 314.039,112.169 315.900 M149.125 318.701 C 150.339 319.856,151.435 320.698,151.562 320.571 C 151.689 320.444,151.445 320.145,151.019 319.907 C 150.593 319.668,149.497 318.827,148.582 318.037 C 147.668 317.247,147.912 317.545,149.125 318.701 M115.200 319.821 C 115.200 320.579,121.665 328.400,122.292 328.400 C 122.443 328.400,121.834 327.635,120.938 326.700 C 120.043 325.765,118.386 323.774,117.255 322.276 C 116.125 320.778,115.200 319.673,115.200 319.821 M153.200 321.900 C 153.200 322.069,153.560 322.432,154.000 322.707 C 154.440 322.982,154.800 323.069,154.800 322.900 C 154.800 322.731,154.440 322.368,154.000 322.093 C 153.560 321.818,153.200 321.731,153.200 321.900 M126.000 332.600 C 126.746 333.370,127.447 334.000,127.557 334.000 C 127.667 334.000,127.146 333.370,126.400 332.600 C 125.654 331.830,124.953 331.200,124.843 331.200 C 124.733 331.200,125.254 331.830,126.000 332.600 M174.200 332.951 C 175.599 333.556,177.600 334.087,177.600 333.854 C 177.600 333.667,173.811 332.392,173.325 332.416 C 173.146 332.424,173.540 332.665,174.200 332.951 M178.433 334.144 C 178.525 334.223,179.140 334.408,179.800 334.556 C 180.676 334.752,180.838 334.715,180.400 334.418 C 179.860 334.053,178.032 333.798,178.433 334.144 M181.633 334.944 C 181.725 335.023,182.340 335.208,183.000 335.356 C 183.876 335.552,184.038 335.515,183.600 335.218 C 183.060 334.853,181.232 334.598,181.633 334.944 M130.600 336.800 C 131.459 337.680,132.252 338.400,132.362 338.400 C 132.472 338.400,131.859 337.680,131.000 336.800 C 130.141 335.920,129.348 335.200,129.238 335.200 C 129.128 335.200,129.741 335.920,130.600 336.800 M185.233 335.744 C 185.325 335.824,186.210 336.006,187.200 336.150 C 188.458 336.333,188.819 336.291,188.400 336.012 C 187.860 335.653,184.832 335.397,185.233 335.744 M190.433 336.547 C 190.525 336.629,192.400 336.793,194.600 336.913 C 197.334 337.062,198.030 337.025,196.800 336.795 C 195.000 336.459,190.119 336.269,190.433 336.547 M201.633 337.344 C 201.725 337.423,202.340 337.608,203.000 337.756 C 203.876 337.952,204.038 337.915,203.600 337.618 C 203.060 337.253,201.232 336.998,201.633 337.344 M212.244 347.000 C 212.573 348.471,212.802 348.790,212.794 347.767 C 212.791 347.345,212.605 346.730,212.382 346.400 C 212.085 345.962,212.048 346.124,212.244 347.000 M145.800 347.796 C 146.694 348.539,149.228 349.909,148.600 349.310 C 148.380 349.100,147.480 348.524,146.600 348.030 C 145.720 347.535,145.360 347.430,145.800 347.796 M153.200 352.000 C 154.410 352.639,155.580 353.162,155.800 353.162 C 156.020 353.162,155.210 352.639,154.000 352.000 C 152.790 351.361,151.620 350.838,151.400 350.838 C 151.180 350.838,151.990 351.361,153.200 352.000 M212.446 352.067 C 212.421 352.434,212.296 353.064,212.170 353.467 C 211.952 354.162,211.963 354.163,212.397 353.487 C 212.648 353.096,212.773 352.466,212.673 352.087 C 212.511 351.468,212.488 351.466,212.446 352.067 M98.800 358.951 C 98.800 359.361,100.786 361.145,100.940 360.874 C 101.026 360.723,100.579 360.181,99.948 359.670 C 99.317 359.158,98.800 358.835,98.800 358.951 M299.926 359.793 C 299.335 360.302,298.940 360.807,299.050 360.916 C 299.159 361.026,299.698 360.665,300.248 360.115 C 301.543 358.821,301.317 358.595,299.926 359.793 M178.590 360.784 C 178.732 361.013,179.317 361.200,179.890 361.200 C 181.144 361.200,180.999 361.008,179.466 360.640 C 178.723 360.462,178.421 360.511,178.590 360.784 M183.600 361.579 C 183.930 361.804,184.725 361.991,185.367 361.994 C 186.904 362.002,186.584 361.770,184.600 361.438 C 183.454 361.246,183.170 361.286,183.600 361.579 M188.892 362.465 C 189.171 362.643,191.020 362.770,193.000 362.747 C 197.259 362.700,196.785 362.506,191.892 362.294 C 189.962 362.211,188.612 362.288,188.892 362.465 M202.400 362.400 C 201.576 362.664,201.541 362.726,202.200 362.754 C 202.640 362.773,203.270 362.613,203.600 362.400 C 204.301 361.947,203.814 361.947,202.400 362.400 " stroke="none" fill="#9ae4fc" fill-rule="evenodd"></path></g></svg>